<svg width="34" height="34" viewBox="0 0 34 34" fill="none" xmlns="http://www.w3.org/2000/svg">
<g clip-path="url(#clip0)">
<path d="M24.7744 8.19488C24.774 8.19488 24.7736 8.19482 24.7731 8.19485L17.8622 8.22541C17.3445 8.22771 16.9265 8.64923 16.9288 9.16706C16.9311 9.68482 17.3526 10.1027 17.8704 10.1004L22.5103 10.0799L8.49942 24.1471C8.13402 24.5139 8.13521 25.1075 8.50207 25.4729C8.86893 25.8383 9.4625 25.8371 9.8279 25.4702L23.8388 11.4031L23.8369 16.043C23.8367 16.5608 24.2563 16.9807 24.774 16.9808C25.2919 16.9811 25.7117 16.5614 25.7119 16.0437L25.7148 9.13267C25.7148 9.13228 25.7147 9.13188 25.7148 9.13145C25.7142 8.61269 25.2915 8.19328 24.7744 8.19488Z" fill="#212121"/>
</g>
<defs>
<clipPath id="clip0">
<rect width="24" height="24" fill="white" transform="translate(0 17.0049) rotate(-45.1148)"/>
</clipPath>
</defs>
</svg>
