<svg width="24" height="24" viewBox="0 0 24 24" fill="none" xmlns="http://www.w3.org/2000/svg">
<path fill-rule="evenodd" clip-rule="evenodd" d="M2.33301 8.99967C2.33301 8.63148 2.63148 8.33301 2.99967 8.33301H20.9997C21.3679 8.33301 21.6663 8.63148 21.6663 8.99967V19.9997C21.6663 20.4417 21.4907 20.8656 21.1782 21.1782C20.8656 21.4907 20.4417 21.6663 19.9997 21.6663H3.99967C3.55765 21.6663 3.13372 21.4907 2.82116 21.1782C2.5086 20.8656 2.33301 20.4417 2.33301 19.9997V8.99967ZM3.66634 9.66634V19.9997C3.66634 20.0881 3.70146 20.1729 3.76397 20.2354C3.82648 20.2979 3.91127 20.333 3.99967 20.333H19.9997C20.0881 20.333 20.1729 20.2979 20.2354 20.2354C20.2979 20.1729 20.333 20.0881 20.333 19.9997V9.66634H3.66634Z" fill="black"/>
<path fill-rule="evenodd" clip-rule="evenodd" d="M3.99967 4.66634C3.91127 4.66634 3.82648 4.70146 3.76397 4.76397C3.70146 4.82648 3.66634 4.91127 3.66634 4.99967V8.33301H20.333V4.99967C20.333 4.91127 20.2979 4.82648 20.2354 4.76397C20.1729 4.70146 20.0881 4.66634 19.9997 4.66634H3.99967ZM3.99967 3.33301H19.9997C20.4417 3.33301 20.8656 3.5086 21.1782 3.82116C21.4907 4.13372 21.6663 4.55765 21.6663 4.99967V8.99967C21.6663 9.36786 21.3679 9.66634 20.9997 9.66634H2.99967C2.63148 9.66634 2.33301 9.36786 2.33301 8.99967V4.99967C2.33301 4.55765 2.5086 4.13372 2.82116 3.82116C3.13372 3.5086 3.55765 3.33301 3.99967 3.33301Z" fill="black"/>
<path fill-rule="evenodd" clip-rule="evenodd" d="M15.9997 2.33301C16.3679 2.33301 16.6663 2.63148 16.6663 2.99967V5.99967C16.6663 6.36786 16.3679 6.66634 15.9997 6.66634C15.6315 6.66634 15.333 6.36786 15.333 5.99967V2.99967C15.333 2.63148 15.6315 2.33301 15.9997 2.33301Z" fill="black"/>
<path fill-rule="evenodd" clip-rule="evenodd" d="M7.99967 2.33301C8.36786 2.33301 8.66634 2.63148 8.66634 2.99967V5.99967C8.66634 6.36786 8.36786 6.66634 7.99967 6.66634C7.63148 6.66634 7.33301 6.36786 7.33301 5.99967V2.99967C7.33301 2.63148 7.63148 2.33301 7.99967 2.33301Z" fill="black"/>
<path d="M8 12C8 12.5523 7.55228 13 7 13C6.44772 13 6 12.5523 6 12C6 11.4477 6.44772 11 7 11C7.55228 11 8 11.4477 8 12Z" fill="black"/>
<path d="M8 16C8 16.5523 7.55228 17 7 17C6.44772 17 6 16.5523 6 16C6 15.4477 6.44772 15 7 15C7.55228 15 8 15.4477 8 16Z" fill="black"/>
<path d="M13 12C13 12.5523 12.5523 13 12 13C11.4477 13 11 12.5523 11 12C11 11.4477 11.4477 11 12 11C12.5523 11 13 11.4477 13 12Z" fill="black"/>
<path d="M13 16C13 16.5523 12.5523 17 12 17C11.4477 17 11 16.5523 11 16C11 15.4477 11.4477 15 12 15C12.5523 15 13 15.4477 13 16Z" fill="black"/>
<path d="M18 12C18 12.5523 17.5523 13 17 13C16.4477 13 16 12.5523 16 12C16 11.4477 16.4477 11 17 11C17.5523 11 18 11.4477 18 12Z" fill="black"/>
<path d="M18 16C18 16.5523 17.5523 17 17 17C16.4477 17 16 16.5523 16 16C16 15.4477 16.4477 15 17 15C17.5523 15 18 15.4477 18 16Z" fill="black"/>
</svg>
